<?xml version="1.0" standalone="no"?>
<!DOCTYPE svg PUBLIC "-//W3C//DTD SVG 20010904//EN"
 "http://www.w3.org/TR/2001/REC-SVG-20010904/DTD/svg10.dtd">
<svg version="1.0" xmlns="http://www.w3.org/2000/svg"
 width="512.000000pt" height="512.000000pt" viewBox="0 0 512.000000 512.000000"
 preserveAspectRatio="xMidYMid meet">

<g transform="translate(0.000000,512.000000) scale(0.100000,-0.100000)"
fill="#000000" stroke="none">
<path d="M3380 5114 c-220 -27 -404 -120 -566 -286 -91 -93 -2754 -3162 -2791
-3216 -28 -42 -29 -86 -3 -129 37 -61 50 -63 352 -63 l273 1 425 484 c261 298
437 491 457 500 71 34 168 3 204 -65 25 -45 24 -116 0 -155 -10 -16 -158 -188
-327 -381 -170 -192 -315 -358 -323 -368 -14 -17 -3 -17 225 -14 263 5 296 10
430 72 261 121 507 399 614 695 74 203 73 192 79 671 6 415 7 437 27 470 59
101 195 104 268 6 16 -21 22 -48 26 -118 l5 -90 70 58 c221 182 534 325 848
389 173 34 280 46 452 50 l149 4 81 193 80 193 290 5 c329 6 338 8 375 85 25
52 25 88 0 141 -38 78 -38 78 -360 84 l-285 5 -28 85 c-52 160 -80 223 -138
310 -121 180 -297 306 -508 362 -75 20 -312 33 -401 22z m427 -555 c34 -21 73
-90 73 -130 -1 -36 -34 -103 -64 -127 -39 -30 -102 -37 -154 -17 -106 43 -131
174 -49 253 57 55 126 63 194 21z"/>
<path d="M3955 3299 c-113 -11 -193 -26 -320 -59 -290 -76 -514 -199 -706
-390 -134 -132 -179 -198 -179 -260 0 -80 -21 -222 -50 -337 -72 -285 -221
-552 -422 -756 l-78 -79 0 -344 0 -345 158 3 157 3 3 343 2 342 45 0 c76 0
266 29 363 55 532 143 992 595 1182 1161 65 196 100 403 100 595 l0 79 -87 -1
c-49 -1 -124 -5 -168 -10z"/>
<path d="M1590 1075 l0 -345 155 0 155 0 0 345 0 345 -155 0 -155 0 0 -345z"/>
<path d="M62 390 c-48 -29 -62 -72 -62 -187 0 -111 15 -148 72 -183 32 -20 50
-20 808 -17 l774 2 15 45 c19 60 19 261 0 315 l-14 40 -780 2 c-767 3 -781 3
-813 -17z"/>
<path d="M1991 368 c11 -56 11 -271 0 -326 l-8 -42 161 2 161 3 14 40 c19 53
20 244 3 313 l-14 52 -163 0 -162 0 8 -42z"/>
<path d="M2645 355 c8 -70 8 -230 -1 -301 l-6 -54 1188 0 c1169 0 1190 0 1222
20 57 35 72 72 72 183 0 115 -14 158 -62 187 -33 20 -47 20 -1227 20 l-1193 0
7 -55z"/>
</g>
</svg>
